<svg width="31" height="31" viewBox="0 0 31 31" fill="none" xmlns="http://www.w3.org/2000/svg">
<rect width="29.9997" height="30.0003" rx="7.48905" transform="matrix(1.00001 0.000482351 0.000507218 0.99999 0 0)" fill="url(#paint0_linear_11276_1732)"/>
<path d="M22.4074 8L7.59259 8C7.2963 8 7 8.2293 7 8.53503C7 8.84076 7.2963 9.1465 7.59259 9.1465L8.18519 9.1465L8.18519 19.3121C8.18519 19.6178 8.40741 19.9236 8.77778 19.9236L13.7407 19.9236L11.7407 21.9873C11.5185 22.2166 11.5185 22.5987 11.7407 22.828C11.963 23.0573 12.3333 23.0573 12.5556 22.828L15.1481 20.1529L17.7407 22.828C17.8148 22.9045 17.963 22.9809 18.1111 22.9809C18.2593 22.9809 18.4074 22.9045 18.4815 22.828C18.7037 22.5987 18.7037 22.2166 18.4815 21.9873L16.4815 19.9236L21.4444 19.9236C21.7407 19.9236 22.037 19.6943 22.037 19.3121L22.037 9.1465L22.4074 9.1465C22.7037 9.1465 23 8.9172 23 8.53503C23 8.15287 22.7037 8 22.4074 8ZM19.0741 12.051L15.3704 15.8726C15.1481 16.1019 14.7778 16.1019 14.5556 15.8726L13.2963 14.5732L11.5926 16.2548C11.5185 16.4076 11.4444 16.4841 11.2963 16.4841C11.1481 16.4841 11 16.4076 10.9259 16.3312C10.7037 16.1019 10.7037 15.7197 10.9259 15.4904L13 13.3503C13.2222 13.121 13.5926 13.121 13.7407 13.3503L15 14.6497L18.3333 11.2102C18.5556 10.9809 18.9259 10.9809 19.1481 11.2102C19.2963 11.4395 19.2963 11.8217 19.0741 12.051Z" fill="white"/>
<defs>
<linearGradient id="paint0_linear_11276_1732" x1="29.9997" y1="15.0001" x2="0" y2="15.0001" gradientUnits="userSpaceOnUse">
<stop stop-color="#5B70E9"/>
<stop offset="1" stop-color="#7EA2F5"/>
</linearGradient>
</defs>
</svg>
