<svg width="32" height="34" viewBox="0 0 32 34" fill="none" xmlns="http://www.w3.org/2000/svg">
<rect width="31.5693" height="33.4826" rx="9.8317" transform="matrix(1.00001 0.000482351 0.000507218 0.99999 0.109375 0.181641)" fill="white"/>
<path d="M24.7097 14.4054C25.5592 14.4054 26.2485 15.0605 26.2485 15.868L26.2485 25.6139C26.2485 26.4214 25.5592 27.0766 24.7097 27.0766L22.66 27.0766C21.8105 27.0766 21.121 26.4214 21.121 25.6139L21.121 15.8662C21.121 15.0587 21.8102 14.4033 22.66 14.4033L24.7097 14.4033L24.7097 14.4054ZM10.355 16.3538C11.2045 16.3538 11.8937 17.0089 11.8937 17.8164L11.8937 25.6121C11.8937 26.4196 11.2045 27.075 10.355 27.075L8.30521 27.075C7.45571 27.075 6.76644 26.4198 6.76644 25.6121L6.76644 17.8146C6.76644 17.0071 7.45571 16.3517 8.30521 16.3517L10.355 16.3517L10.355 16.3538ZM17.5322 18.3021C18.3817 18.3021 19.071 18.9573 19.071 19.7648L19.071 25.6121C19.071 26.4196 18.3817 27.075 17.5322 27.075L15.4825 27.075C14.633 27.075 13.9435 26.4198 13.9435 25.6121L13.9435 19.7648C13.9435 18.9573 14.6327 18.3021 15.4825 18.3021L17.5322 18.3021ZM22.8402 8.81243L21.6298 8.82008C21.2059 8.82217 20.8593 8.49829 20.8554 8.09349C20.8512 7.69264 21.1939 7.3632 21.6178 7.35926L24.7034 7.33793C24.9022 7.33607 25.1009 7.40748 25.2529 7.55191C25.328 7.62332 25.3846 7.70609 25.4212 7.7928C25.4556 7.86977 25.478 7.96621 25.478 8.06846L25.478 11.0056C25.478 11.4086 25.1334 11.7362 24.7097 11.7362C24.2861 11.7362 23.9412 11.4086 23.9412 11.0056L23.9412 9.83392L17.0517 16.3825C16.8266 16.5965 16.4861 16.6563 16.1961 16.5327L6.96717 12.636C6.57986 12.472 6.40352 12.0404 6.57596 11.6703C6.74815 11.3022 7.20254 11.1346 7.5918 11.2985L16.3364 14.9928L22.8402 8.81243Z" fill="#3F99FF"/>
</svg>
