<svg width="31" height="31" viewBox="0 0 31 31" fill="none" xmlns="http://www.w3.org/2000/svg">
<rect width="29.9997" height="30.0003" rx="7.48905" transform="matrix(1.00001 0.000482351 0.000507218 0.99999 0 0)" fill="url(#paint0_linear_11276_1741)"/>
<path fill-rule="evenodd" clip-rule="evenodd" d="M12.5543 15.2394C11.9517 15.2394 11.2473 15.0392 10.7448 14.737C9.63812 14.1327 8.93539 12.9259 8.93539 11.6189C8.93539 9.60745 10.5428 8 12.5543 8C14.5657 8 16.1748 9.60914 16.1748 11.6206C16.1748 13.0277 15.3703 14.1344 14.2636 14.737C13.7611 15.0392 13.1568 15.2394 12.5543 15.2394ZM20.5236 18.4951C21.2857 19.2284 22.1412 21.1142 22.2363 23L7.01563 23C7.20743 19.4371 8.82336 16.504 10.918 15.455C11.3949 15.7707 11.9653 15.9795 12.6307 15.9795C13.2027 15.9795 13.773 15.8743 14.2483 15.455C14.2483 15.455 14.5351 15.3515 15.6758 16.3988C16.056 16.818 16.5313 17.4461 16.9115 17.9706C16.9588 17.9191 17.0295 17.8932 17.1003 17.8673C17.172 17.841 17.2439 17.8147 17.2917 17.7618C17.5769 18.0758 17.9571 18.1811 18.4324 18.1811C18.9077 18.1811 19.2879 18.0758 19.5731 17.867C19.5731 17.867 19.7632 17.7618 20.5236 18.4951ZM11.7735 21.7881L12.629 22.7318L13.4844 21.7897L12.724 17.4936L13.1993 16.8656C13.0092 16.6568 12.2487 16.6568 12.1537 16.8656L12.5339 17.4936L11.7735 21.7881ZM18.8109 18.9704C18.7159 18.8685 18.2406 18.8685 18.1455 18.9704L18.3356 19.3811L17.857 22.2311L18.4307 22.8642L19.001 22.2497L18.5258 19.3811L18.8109 18.9704ZM17.2246 17.2259L17.2195 17.2234C16.5015 16.8143 15.9889 15.9945 16.0941 15.1746C16.0941 13.8422 17.2212 12.7151 18.5537 12.7151C19.8861 12.7151 21.0132 13.8422 21.0132 15.1746C21.0132 16.0963 20.3988 16.9162 19.6808 17.3269C19.27 17.5323 18.8609 17.6342 18.4501 17.6342C18.041 17.6342 17.6336 17.4305 17.2246 17.2259Z" fill="white"/>
<defs>
<linearGradient id="paint0_linear_11276_1741" x1="29.9997" y1="15.0001" x2="0" y2="15.0001" gradientUnits="userSpaceOnUse">
<stop stop-color="#5B70E9"/>
<stop offset="1" stop-color="#7EA2F5"/>
</linearGradient>
</defs>
</svg>
