<svg width="21" height="21" viewBox="0 0 21 21" fill="none" xmlns="http://www.w3.org/2000/svg">
<rect width="20.3688" height="20.3692" rx="4" transform="matrix(1.00001 0.000482351 0.000507218 0.99999 0 0)" fill="url(#paint0_linear_11611_1093)"/>
<g clip-path="url(#clip0_11611_1093)">
<path fill-rule="evenodd" clip-rule="evenodd" d="M6.56222 6.75593L10.5283 5.45508H10.7046L14.7588 6.75593C14.935 6.83246 14.935 7.06202 14.7588 7.13854L10.7046 9.28113H10.5283L6.56222 7.13854C6.38595 7.06202 6.38595 6.83246 6.56222 6.75593ZM15.0264 12.7234L11.5891 14.5599C11.3247 14.713 11.0603 14.56 11.0603 14.2539V9.96869C11.0603 9.89217 11.1484 9.73913 11.2366 9.66261L14.6738 7.82611C14.9383 7.67306 15.2027 7.82611 15.2027 8.13219V12.4939C15.2027 12.5704 15.1145 12.7234 15.0264 12.7234ZM6.21143 12.7238L9.64869 14.5603C9.9131 14.7134 10.1775 14.5603 10.1775 14.2543V9.96909C10.1775 9.89256 10.0894 9.73952 10.0012 9.663L6.56397 7.8265C6.3877 7.74998 6.03516 7.90302 6.03516 8.13258V12.4943C6.03516 12.5708 6.12329 12.7238 6.21143 12.7238Z" fill="white"/>
</g>
<defs>
<linearGradient id="paint0_linear_11611_1093" x1="20.3688" y1="10.1846" x2="0" y2="10.1846" gradientUnits="userSpaceOnUse">
<stop stop-color="#5B70E9"/>
<stop offset="1" stop-color="#7EA2F5"/>
</linearGradient>
<clipPath id="clip0_11611_1093">
<rect width="11.2605" height="11.249" fill="white" transform="translate(4.3125 4.71094)"/>
</clipPath>
</defs>
</svg>
