<svg width="33" height="26" viewBox="0 0 33 26" fill="none" xmlns="http://www.w3.org/2000/svg">
<g opacity="0.3" filter="url(#filter0_b_11276_2085)">
<path d="M3.66033 8.31675H27.9117C28.7157 8.31675 29.4867 7.99737 30.0553 7.42887C30.6238 6.86037 30.9431 6.08931 30.9431 5.28533C30.9431 4.48135 30.6238 3.71029 30.0553 3.14179C29.4867 2.57329 28.7157 2.25391 27.9117 2.25391H3.66033C2.85635 2.25391 2.08529 2.57329 1.51679 3.14179C0.948287 3.71029 0.628906 4.48135 0.628906 5.28533C0.628906 6.08931 0.948287 6.86037 1.51679 7.42887C2.08529 7.99737 2.85635 8.31675 3.66033 8.31675ZM26.396 3.517C26.7457 3.517 27.0876 3.62071 27.3784 3.81502C27.6692 4.00932 27.8959 4.2855 28.0297 4.60862C28.1636 4.93174 28.1986 5.28729 28.1304 5.63031C28.0621 5.97334 27.8937 6.28842 27.6464 6.53573C27.3991 6.78303 27.084 6.95145 26.741 7.01968C26.398 7.08791 26.0424 7.05289 25.7193 6.91905C25.3962 6.78521 25.12 6.55856 24.9257 6.26776C24.7314 5.97696 24.6277 5.63507 24.6277 5.28533C24.6277 4.81634 24.814 4.36656 25.1456 4.03493C25.4772 3.7033 25.927 3.517 26.396 3.517ZM21.5962 3.517C21.946 3.517 22.2879 3.62071 22.5787 3.81502C22.8695 4.00932 23.0961 4.2855 23.23 4.60862C23.3638 4.93174 23.3988 5.28729 23.3306 5.63031C23.2624 5.97334 23.0939 6.28842 22.8466 6.53573C22.5993 6.78303 22.2843 6.95145 21.9412 7.01968C21.5982 7.08791 21.2427 7.05289 20.9195 6.91905C20.5964 6.78521 20.3202 6.55856 20.1259 6.26776C19.9316 5.97696 19.8279 5.63507 19.8279 5.28533C19.8279 4.81634 20.0142 4.36656 20.3458 4.03493C20.6775 3.7033 21.1273 3.517 21.5962 3.517ZM27.9117 11.0956H3.66033C2.85635 11.0956 2.08529 11.4149 1.51679 11.9834C0.948287 12.5519 0.628906 13.323 0.628906 14.127C0.628906 14.931 0.948287 15.702 1.51679 16.2705C2.08529 16.839 2.85635 17.1584 3.66033 17.1584H27.9117C28.7157 17.1584 29.4867 16.839 30.0553 16.2705C30.6238 15.702 30.9431 14.931 30.9431 14.127C30.9431 13.323 30.6238 12.5519 30.0553 11.9834C29.4867 11.4149 28.7157 11.0956 27.9117 11.0956ZM21.5962 15.8953C21.2465 15.8953 20.9046 15.7916 20.6138 15.5973C20.323 15.403 20.0964 15.1268 19.9625 14.8037C19.8287 14.4806 19.7937 14.125 19.8619 13.782C19.9301 13.439 20.0985 13.1239 20.3458 12.8766C20.5932 12.6293 20.9082 12.4609 21.2513 12.3926C21.5943 12.3244 21.9498 12.3594 22.273 12.4933C22.5961 12.6271 22.8723 12.8537 23.0666 13.1445C23.2609 13.4353 23.3646 13.7772 23.3646 14.127C23.3646 14.596 23.1783 15.0457 22.8466 15.3774C22.515 15.709 22.0652 15.8953 21.5962 15.8953ZM26.396 15.8953C26.0463 15.8953 25.7044 15.7916 25.4136 15.5973C25.1228 15.403 24.8961 15.1268 24.7623 14.8037C24.6284 14.4806 24.5934 14.125 24.6616 13.782C24.7299 13.439 24.8983 13.1239 25.1456 12.8766C25.3929 12.6293 25.708 12.4609 26.051 12.3926C26.394 12.3244 26.7496 12.3594 27.0727 12.4933C27.3958 12.6271 27.672 12.8537 27.8663 13.1445C28.0606 13.4353 28.1643 13.7772 28.1643 14.127C28.1643 14.596 27.978 15.0457 27.6464 15.3774C27.3148 15.709 26.865 15.8953 26.396 15.8953ZM27.9117 19.9372H3.66033C2.85635 19.9372 2.08529 20.2566 1.51679 20.8251C0.948287 21.3936 0.628906 22.1646 0.628906 22.9686C0.628906 23.7726 0.948287 24.5437 1.51679 25.1122C2.08529 25.6807 2.85635 26 3.66033 26H27.9117C28.7157 26 29.4867 25.6807 30.0553 25.1122C30.6238 24.5437 30.9431 23.7726 30.9431 22.9686C30.9431 22.1646 30.6238 21.3936 30.0553 20.8251C29.4867 20.2566 28.7157 19.9372 27.9117 19.9372ZM21.5962 24.737C21.2465 24.737 20.9046 24.6332 20.6138 24.4389C20.323 24.2446 20.0964 23.9685 19.9625 23.6453C19.8287 23.3222 19.7937 22.9667 19.8619 22.6236C19.9301 22.2806 20.0985 21.9655 20.3458 21.7182C20.5932 21.4709 20.9082 21.3025 21.2513 21.2343C21.5943 21.166 21.9498 21.2011 22.273 21.3349C22.5961 21.4687 22.8723 21.6954 23.0666 21.9862C23.2609 22.277 23.3646 22.6189 23.3646 22.9686C23.3646 23.4376 23.1783 23.8874 22.8466 24.219C22.515 24.5507 22.0652 24.737 21.5962 24.737ZM26.396 24.737C26.0463 24.737 25.7044 24.6332 25.4136 24.4389C25.1228 24.2446 24.8961 23.9685 24.7623 23.6453C24.6284 23.3222 24.5934 22.9667 24.6616 22.6236C24.7299 22.2806 24.8983 21.9655 25.1456 21.7182C25.3929 21.4709 25.708 21.3025 26.051 21.2343C26.394 21.166 26.7496 21.2011 27.0727 21.3349C27.3958 21.4687 27.672 21.6954 27.8663 21.9862C28.0606 22.277 28.1643 22.6189 28.1643 22.9686C28.1643 23.4376 27.978 23.8874 27.6464 24.219C27.3148 24.5507 26.865 24.737 26.396 24.737Z" fill="#0758B3"/>
</g>
<g filter="url(#filter1_b_11276_2085)">
<path d="M4.91424 7.06285H29.1656C29.9696 7.06285 30.7407 6.74346 31.3092 6.17496C31.8777 5.60646 32.197 4.83541 32.197 4.03142C32.197 3.22744 31.8777 2.45639 31.3092 1.88788C30.7407 1.31938 29.9696 1 29.1656 1H4.91424C4.11025 1 3.3392 1.31938 2.7707 1.88788C2.20219 2.45639 1.88281 3.22744 1.88281 4.03142C1.88281 4.83541 2.20219 5.60646 2.7707 6.17496C3.3392 6.74346 4.11025 7.06285 4.91424 7.06285ZM27.6499 2.26309C27.9996 2.26309 28.3415 2.3668 28.6323 2.56111C28.9231 2.75542 29.1498 3.03159 29.2836 3.35471C29.4175 3.67783 29.4525 4.03338 29.3843 4.37641C29.316 4.71943 29.1476 5.03452 28.9003 5.28182C28.653 5.52913 28.3379 5.69754 27.9949 5.76577C27.6519 5.83401 27.2963 5.79899 26.9732 5.66515C26.6501 5.53131 26.3739 5.30465 26.1796 5.01385C25.9853 4.72305 25.8816 4.38117 25.8816 4.03142C25.8816 3.56243 26.0679 3.11265 26.3995 2.78102C26.7311 2.4494 27.1809 2.26309 27.6499 2.26309ZM22.8502 2.26309C23.1999 2.26309 23.5418 2.3668 23.8326 2.56111C24.1234 2.75542 24.35 3.03159 24.4839 3.35471C24.6177 3.67783 24.6527 4.03338 24.5845 4.37641C24.5163 4.71943 24.3479 5.03452 24.1005 5.28182C23.8532 5.52913 23.5382 5.69754 23.1951 5.76577C22.8521 5.83401 22.4966 5.79899 22.1734 5.66515C21.8503 5.53131 21.5741 5.30465 21.3798 5.01385C21.1855 4.72305 21.0818 4.38117 21.0818 4.03142C21.0818 3.56243 21.2681 3.11265 21.5998 2.78102C21.9314 2.4494 22.3812 2.26309 22.8502 2.26309ZM29.1656 9.84165H4.91424C4.11025 9.84165 3.3392 10.161 2.7707 10.7295C2.20219 11.298 1.88281 12.0691 1.88281 12.8731C1.88281 13.6771 2.20219 14.4481 2.7707 15.0166C3.3392 15.5851 4.11025 15.9045 4.91424 15.9045H29.1656C29.9696 15.9045 30.7407 15.5851 31.3092 15.0166C31.8777 14.4481 32.197 13.6771 32.197 12.8731C32.197 12.0691 31.8777 11.298 31.3092 10.7295C30.7407 10.161 29.9696 9.84165 29.1656 9.84165ZM22.8502 14.6414C22.5004 14.6414 22.1585 14.5377 21.8677 14.3434C21.5769 14.1491 21.3503 13.8729 21.2164 13.5498C21.0826 13.2267 21.0476 12.8711 21.1158 12.5281C21.184 12.1851 21.3524 11.87 21.5998 11.6227C21.8471 11.3754 22.1621 11.207 22.5052 11.1387C22.8482 11.0705 23.2037 11.1055 23.5269 11.2393C23.85 11.3732 24.1262 11.5998 24.3205 11.8906C24.5148 12.1814 24.6185 12.5233 24.6185 12.8731C24.6185 13.3421 24.4322 13.7918 24.1005 14.1235C23.7689 14.4551 23.3191 14.6414 22.8502 14.6414ZM27.6499 14.6414C27.3002 14.6414 26.9583 14.5377 26.6675 14.3434C26.3767 14.1491 26.15 13.8729 26.0162 13.5498C25.8823 13.2267 25.8473 12.8711 25.9156 12.5281C25.9838 12.1851 26.1522 11.87 26.3995 11.6227C26.6468 11.3754 26.9619 11.207 27.3049 11.1387C27.6479 11.0705 28.0035 11.1055 28.3266 11.2393C28.6497 11.3732 28.9259 11.5998 29.1202 11.8906C29.3145 12.1814 29.4182 12.5233 29.4182 12.8731C29.4182 13.3421 29.2319 13.7918 28.9003 14.1235C28.5687 14.4551 28.1189 14.6414 27.6499 14.6414ZM29.1656 18.6833H4.91424C4.11025 18.6833 3.3392 19.0027 2.7707 19.5712C2.20219 20.1397 1.88281 20.9107 1.88281 21.7147C1.88281 22.5187 2.20219 23.2898 2.7707 23.8583C3.3392 24.4268 4.11025 24.7461 4.91424 24.7461H29.1656C29.9696 24.7461 30.7407 24.4268 31.3092 23.8583C31.8777 23.2898 32.197 22.5187 32.197 21.7147C32.197 20.9107 31.8777 20.1397 31.3092 19.5712C30.7407 19.0027 29.9696 18.6833 29.1656 18.6833ZM22.8502 23.4831C22.5004 23.4831 22.1585 23.3793 21.8677 23.185C21.5769 22.9907 21.3503 22.7146 21.2164 22.3914C21.0826 22.0683 21.0476 21.7128 21.1158 21.3697C21.184 21.0267 21.3524 20.7116 21.5998 20.4643C21.8471 20.217 22.1621 20.0486 22.5052 19.9804C22.8482 19.9121 23.2037 19.9472 23.5269 20.081C23.85 20.2148 24.1262 20.4415 24.3205 20.7323C24.5148 21.0231 24.6185 21.365 24.6185 21.7147C24.6185 22.1837 24.4322 22.6335 24.1005 22.9651C23.7689 23.2967 23.3191 23.4831 22.8502 23.4831ZM27.6499 23.4831C27.3002 23.4831 26.9583 23.3793 26.6675 23.185C26.3767 22.9907 26.15 22.7146 26.0162 22.3914C25.8823 22.0683 25.8473 21.7128 25.9156 21.3697C25.9838 21.0267 26.1522 20.7116 26.3995 20.4643C26.6468 20.217 26.9619 20.0486 27.3049 19.9804C27.6479 19.9121 28.0035 19.9472 28.3266 20.081C28.6497 20.2148 28.9259 20.4415 29.1202 20.7323C29.3145 21.0231 29.4182 21.365 29.4182 21.7147C29.4182 22.1837 29.2319 22.6335 28.9003 22.9651C28.5687 23.2967 28.1189 23.4831 27.6499 23.4831Z" fill="url(#paint0_linear_11276_2085)"/>
<path d="M4.91424 7.32074H29.1656C30.038 7.32074 30.8746 6.97419 31.4915 6.35732C32.1084 5.74045 32.4549 4.9038 32.4549 4.03142C32.4549 3.15904 32.1084 2.32239 31.4915 1.70553C30.8746 1.08866 30.038 0.742107 29.1656 0.742107H4.91424C4.04185 0.742107 3.2052 1.08866 2.58834 1.70553C1.97147 2.32239 1.62492 3.15904 1.62492 4.03142C1.62492 4.9038 1.97147 5.74045 2.58834 6.35732C3.2052 6.97419 4.04185 7.32074 4.91424 7.32074ZM27.6499 2.52099C27.9486 2.52099 28.2407 2.60957 28.4891 2.77554C28.7374 2.94151 28.931 3.17741 29.0454 3.4534C29.1597 3.7294 29.1896 4.0331 29.1313 4.32609C29.073 4.61909 28.9292 4.88823 28.7179 5.09946C28.5067 5.3107 28.2376 5.45456 27.9446 5.51284C27.6516 5.57112 27.3479 5.54121 27.0719 5.42688C26.7959 5.31256 26.56 5.11897 26.394 4.87058C26.2281 4.62219 26.1395 4.33016 26.1395 4.03142C26.1395 3.63083 26.2986 3.24664 26.5819 2.96338C26.8651 2.68012 27.2493 2.52099 27.6499 2.52099ZM22.8502 2.52099C23.1489 2.52099 23.4409 2.60957 23.6893 2.77554C23.9377 2.94151 24.1313 3.17741 24.2456 3.4534C24.3599 3.7294 24.3898 4.0331 24.3316 4.32609C24.2733 4.61909 24.1294 4.88823 23.9182 5.09946C23.707 5.3107 23.4378 5.45456 23.1448 5.51284C22.8518 5.57112 22.5481 5.54121 22.2721 5.42688C21.9961 5.31256 21.7602 5.11897 21.5943 4.87058C21.4283 4.62219 21.3397 4.33016 21.3397 4.03142C21.3397 3.63083 21.4989 3.24664 21.7821 2.96338C22.0654 2.68012 22.4496 2.52099 22.8502 2.52099ZM29.1656 9.58376H4.91424C4.04185 9.58376 3.2052 9.93031 2.58834 10.5472C1.97147 11.164 1.62492 12.0007 1.62492 12.8731C1.62492 13.7455 1.97147 14.5821 2.58834 15.199C3.2052 15.8158 4.04185 16.1624 4.91424 16.1624H29.1656C30.038 16.1624 30.8746 15.8158 31.4915 15.199C32.1084 14.5821 32.4549 13.7455 32.4549 12.8731C32.4549 12.0007 32.1084 11.164 31.4915 10.5472C30.8746 9.93031 30.038 9.58376 29.1656 9.58376ZM22.8502 14.3835C22.5514 14.3835 22.2594 14.2949 22.011 14.129C21.7626 13.963 21.569 13.7271 21.4547 13.4511C21.3404 13.1751 21.3105 12.8714 21.3687 12.5784C21.427 12.2854 21.5709 12.0163 21.7821 11.805C21.9933 11.5938 22.2625 11.4499 22.5555 11.3917C22.8485 11.3334 23.1522 11.3633 23.4282 11.4776C23.7042 11.5919 23.9401 11.7855 24.106 12.0339C24.272 12.2823 24.3606 12.5743 24.3606 12.8731C24.3606 13.2737 24.2015 13.6578 23.9182 13.9411C23.6349 14.2244 23.2507 14.3835 22.8502 14.3835ZM27.6499 14.3835C27.3512 14.3835 27.0591 14.2949 26.8108 14.129C26.5624 13.963 26.3688 13.7271 26.2544 13.4511C26.1401 13.1751 26.1102 12.8714 26.1685 12.5784C26.2268 12.2854 26.3706 12.0163 26.5819 11.805C26.7931 11.5938 27.0622 11.4499 27.3552 11.3917C27.6482 11.3334 27.9519 11.3633 28.2279 11.4776C28.5039 11.5919 28.7398 11.7855 28.9058 12.0339C29.0718 12.2823 29.1603 12.5743 29.1603 12.8731C29.1603 13.2737 29.0012 13.6579 28.7179 13.9411C28.4347 14.2244 28.0505 14.3835 27.6499 14.3835ZM29.1656 18.4254H4.91424C4.04185 18.4254 3.2052 18.772 2.58834 19.3888C1.97147 20.0057 1.62492 20.8423 1.62492 21.7147C1.62492 22.5871 1.97147 23.4238 2.58834 24.0406C3.2052 24.6575 4.04185 25.004 4.91424 25.004H29.1656C30.038 25.004 30.8746 24.6575 31.4915 24.0406C32.1084 23.4238 32.4549 22.5871 32.4549 21.7147C32.4549 20.8423 32.1084 20.0057 31.4915 19.3888C30.8746 18.772 30.038 18.4254 29.1656 18.4254ZM22.8502 23.2252C22.5514 23.2252 22.2594 23.1366 22.011 22.9706C21.7626 22.8046 21.569 22.5687 21.4547 22.2927C21.3404 22.0167 21.3105 21.713 21.3687 21.42C21.427 21.1271 21.5709 20.8579 21.7821 20.6467C21.9933 20.4354 22.2625 20.2916 22.5555 20.2333C22.8485 20.175 23.1522 20.2049 23.4282 20.3193C23.7042 20.4336 23.9401 20.6272 24.106 20.8756C24.272 21.124 24.3606 21.416 24.3606 21.7147C24.3606 22.1153 24.2015 22.4995 23.9182 22.7828C23.6349 23.066 23.2507 23.2252 22.8502 23.2252ZM27.6499 23.2252C27.3512 23.2252 27.0591 23.1366 26.8108 22.9706C26.5624 22.8046 26.3688 22.5687 26.2544 22.2927C26.1401 22.0167 26.1102 21.713 26.1685 21.42C26.2268 21.1271 26.3706 20.8579 26.5819 20.6467C26.7931 20.4354 27.0622 20.2916 27.3552 20.2333C27.6482 20.175 27.9519 20.2049 28.2279 20.3193C28.5039 20.4336 28.7398 20.6272 28.9058 20.8756C29.0718 21.124 29.1603 21.416 29.1603 21.7147C29.1603 22.1153 29.0012 22.4995 28.7179 22.7828C28.4347 23.066 28.0505 23.2252 27.6499 23.2252Z" stroke="url(#paint1_linear_11276_2085)" stroke-width="0.515786"/>
</g>
<defs>
<filter id="filter0_b_11276_2085" x="-26.865" y="-25.24" width="85.3022" height="78.7339" filterUnits="userSpaceOnUse" color-interpolation-filters="sRGB">
<feFlood flood-opacity="0" result="BackgroundImageFix"/>
<feGaussianBlur in="BackgroundImageFix" stdDeviation="13.7469"/>
<feComposite in2="SourceAlpha" operator="in" result="effect1_backgroundBlur_11276_2085"/>
<feBlend mode="normal" in="SourceGraphic" in2="effect1_backgroundBlur_11276_2085" result="shape"/>
</filter>
<filter id="filter1_b_11276_2085" x="-16.359" y="-17.2418" width="66.7981" height="60.2297" filterUnits="userSpaceOnUse" color-interpolation-filters="sRGB">
<feFlood flood-opacity="0" result="BackgroundImageFix"/>
<feGaussianBlur in="BackgroundImageFix" stdDeviation="8.8631"/>
<feComposite in2="SourceAlpha" operator="in" result="effect1_backgroundBlur_11276_2085"/>
<feBlend mode="normal" in="SourceGraphic" in2="effect1_backgroundBlur_11276_2085" result="shape"/>
</filter>
<linearGradient id="paint0_linear_11276_2085" x1="1.88281" y1="12.8731" x2="39.4435" y2="12.98" gradientUnits="userSpaceOnUse">
<stop offset="0.0823979" stop-color="#3F99FF"/>
<stop offset="0.98195" stop-color="#62E2FF" stop-opacity="0.77"/>
</linearGradient>
<linearGradient id="paint1_linear_11276_2085" x1="22.6986" y1="1" x2="-4.21095" y2="11.0027" gradientUnits="userSpaceOnUse">
<stop stop-color="#CCF3FF"/>
<stop offset="0.985029" stop-color="#53A7FF"/>
</linearGradient>
</defs>
</svg>
