<svg width="60" height="17" viewBox="0 0 60 17" fill="none" xmlns="http://www.w3.org/2000/svg">
<path d="M59.5952 8.5C59.5952 9.46659 58.9003 10.4788 57.4172 11.4723C55.9489 12.4559 53.7976 13.3575 51.1029 14.121C45.719 15.6464 38.2579 16.5952 30 16.5952C21.7421 16.5952 14.281 15.6464 8.89714 14.121C6.20243 13.3575 4.05112 12.4559 2.58282 11.4723C1.09971 10.4788 0.404762 9.46659 0.404762 8.5C0.404762 7.53341 1.09971 6.52119 2.58282 5.5277C4.05112 4.54412 6.20243 3.64253 8.89714 2.87902C14.281 1.3536 21.7421 0.404762 30 0.404762C38.2579 0.404762 45.719 1.3536 51.1029 2.87902C53.7976 3.64253 55.9489 4.54412 57.4172 5.5277C58.9003 6.52119 59.5952 7.53341 59.5952 8.5Z" fill="white" fill-opacity="0.1" stroke="url(#paint0_linear_11276_2069)" stroke-width="0.809524"/>
<path d="M43.8496 6C43.8496 6.26583 43.6498 6.64823 42.9661 7.09726C42.3047 7.53158 41.3114 7.94386 40.0347 8.29849C37.4891 9.00562 33.9409 9.45 29.9996 9.45C26.0583 9.45 22.5101 9.00562 19.9645 8.29849C18.6878 7.94386 17.6945 7.53158 17.0332 7.09726C16.3494 6.64823 16.1496 6.26583 16.1496 6C16.1496 5.73417 16.3494 5.35177 17.0332 4.90274C17.6945 4.46842 18.6878 4.05614 19.9645 3.70151C22.5101 2.99438 26.0583 2.55 29.9996 2.55C33.9409 2.55 37.4891 2.99438 40.0347 3.70151C41.3114 4.05614 42.3047 4.46842 42.9661 4.90274C43.6498 5.35177 43.8496 5.73417 43.8496 6Z" fill="url(#paint1_linear_11276_2069)" stroke="url(#paint2_linear_11276_2069)" stroke-width="1.1"/>
<defs>
<linearGradient id="paint0_linear_11276_2069" x1="30" y1="0" x2="30" y2="17" gradientUnits="userSpaceOnUse">
<stop offset="0.0734615" stop-color="white" stop-opacity="0.1"/>
<stop offset="0.709963" stop-color="white"/>
</linearGradient>
<linearGradient id="paint1_linear_11276_2069" x1="29.9996" y1="2" x2="29.9996" y2="10" gradientUnits="userSpaceOnUse">
<stop stop-color="#5EA4BD" stop-opacity="0"/>
<stop offset="1" stop-color="#9FCCFF"/>
</linearGradient>
<linearGradient id="paint2_linear_11276_2069" x1="29.9996" y1="2" x2="29.9996" y2="10" gradientUnits="userSpaceOnUse">
<stop stop-color="#72C4FF" stop-opacity="0"/>
<stop offset="1" stop-color="#71C4FF"/>
</linearGradient>
</defs>
</svg>
