<svg width="173" height="94" viewBox="0 0 173 94" fill="none" xmlns="http://www.w3.org/2000/svg">
<path d="M0 15.8828C4.93802 38.0382 9.4736 54.5529 13.6067 65.4269C19.8065 81.7378 47.2072 86.1454 85.5561 86.1454C123.905 86.1454 155.932 78.6816 159.652 63.6253L172.352 15.8828H0Z" fill="url(#paint0_linear_11546_1058)"/>
<path d="M28.2676 0C36.5875 26.9741 41.9466 43.6087 44.3448 49.9038C47.9421 59.3463 63.8408 61.8979 86.0921 61.8979C108.343 61.8979 126.926 57.5771 129.085 48.8608L143.727 0H28.2676Z" fill="url(#paint1_linear_11546_1058)" fill-opacity="0.6"/>
<path d="M87.0135 92.5991C109.472 92.5991 129.829 89.5039 144.593 84.4824C151.972 81.9727 157.986 78.9708 162.168 75.608C166.344 72.2496 168.77 68.4647 168.77 64.3961C168.77 60.3275 166.344 56.5426 162.168 53.1842C157.986 49.8214 151.972 46.8195 144.593 44.3098C129.829 39.2883 109.472 36.193 87.0135 36.193C64.5553 36.193 44.198 39.2883 29.4343 44.3098C22.0555 46.8195 16.041 49.8214 11.8591 53.1842C7.68273 56.5426 5.25749 60.3275 5.25749 64.3961C5.25749 68.4647 7.68273 72.2496 11.8591 75.608C16.041 78.9708 22.0555 81.9727 29.4343 84.4824C44.198 89.5039 64.5553 92.5991 87.0135 92.5991Z" fill="url(#paint2_linear_11546_1058)" stroke="url(#paint3_linear_11546_1058)" stroke-width="1.19986"/>
<g filter="url(#filter0_i_11546_1058)">
<path d="M86.1794 86.9813C125.918 86.9813 158.132 76.8699 158.132 64.3969C158.132 51.9239 125.918 41.8125 86.1794 41.8125C46.441 41.8125 14.2266 51.9239 14.2266 64.3969C14.2266 76.8699 46.441 86.9813 86.1794 86.9813Z" fill="white" fill-opacity="0.01"/>
</g>
<path d="M86.1794 86.9813C125.918 86.9813 158.132 76.8699 158.132 64.3969C158.132 51.9239 125.918 41.8125 86.1794 41.8125C46.441 41.8125 14.2266 51.9239 14.2266 64.3969C14.2266 76.8699 46.441 86.9813 86.1794 86.9813Z" stroke="url(#paint4_linear_11546_1058)" stroke-width="1.19986"/>
<path fill-rule="evenodd" clip-rule="evenodd" d="M53.0373 80.3072C53.1242 80.3294 53.2124 80.3375 53.3018 80.3316C53.3912 80.3256 53.4774 80.3059 53.5603 80.2724C53.5858 80.2621 53.6106 80.2507 53.6349 80.2379C53.6592 80.2252 53.6828 80.2114 53.7058 80.1964C53.7287 80.1813 53.7508 80.1652 53.7721 80.1481C53.7934 80.1309 53.8139 80.1126 53.8334 80.0934C53.8529 80.0743 53.8714 80.0542 53.889 80.0332C53.9065 80.0121 53.923 79.9903 53.9383 79.9676C53.9537 79.945 53.9679 79.9217 53.981 79.8976C53.9941 79.8736 54.0059 79.849 54.0165 79.8237C54.0272 79.7985 54.0366 79.7729 54.0447 79.7467C54.0528 79.7206 54.0596 79.6941 54.065 79.6673C54.0705 79.6405 54.0747 79.6135 54.0775 79.5862C54.0803 79.559 54.0818 79.5317 54.082 79.5043C54.0821 79.477 54.0809 79.4496 54.0783 79.4224C54.0758 79.3951 54.0719 79.368 54.0666 79.3411C54.0614 79.3142 54.0549 79.2877 54.047 79.2614C54.0392 79.2351 54.03 79.2093 54.0196 79.1839C53.9923 79.1171 53.9568 79.0548 53.9133 78.997C53.8698 78.9392 53.8197 78.888 53.7629 78.8431C53.7061 78.7982 53.6446 78.7612 53.5783 78.7322C53.5119 78.7032 53.443 78.683 53.3715 78.6717C52.4279 78.477 51.0355 78.1963 49.1943 77.8294C44.7564 76.9452 41.5235 76.2521 39.4957 75.75C36.168 74.9261 33.4317 74.0423 31.2868 73.0983C28.7853 71.9975 26.8358 70.717 25.4383 69.257C23.9265 67.6774 22.985 65.8092 22.614 63.6522C22.6049 63.5779 22.5862 63.5062 22.5578 63.4369C22.5474 63.4115 22.5358 63.3867 22.523 63.3624C22.5101 63.3382 22.4961 63.3146 22.481 63.2917C22.4658 63.2688 22.4496 63.2467 22.4322 63.2254C22.4149 63.2041 22.3966 63.1837 22.3773 63.1642C22.3579 63.1447 22.3377 63.1261 22.3165 63.1086C22.2954 63.091 22.2734 63.0746 22.2506 63.0592C22.2279 63.0438 22.2044 63.0295 22.1803 63.0164C22.1561 63.0033 22.1313 62.9914 22.106 62.9807C22.0806 62.97 22.0548 62.9606 22.0286 62.9524C22.0023 62.9443 21.9758 62.9374 21.9488 62.9318C21.9219 62.9263 21.8948 62.922 21.8674 62.9191C21.8401 62.9162 21.8127 62.9146 21.7852 62.9144C21.7578 62.9142 21.7303 62.9153 21.703 62.9178C21.6756 62.9202 21.6485 62.924 21.6215 62.9291C21.5945 62.9342 21.5679 62.9407 21.5415 62.9484C21.5152 62.9561 21.4893 62.9651 21.4639 62.9754C21.4185 62.9937 21.3751 63.0158 21.3337 63.0417C21.2922 63.0676 21.2534 63.0969 21.2171 63.1296C21.1809 63.1623 21.1477 63.1979 21.1178 63.2364C21.0878 63.2749 21.0614 63.3158 21.0386 63.3589C21.0158 63.402 20.997 63.4468 20.9821 63.4933C20.9671 63.5397 20.9564 63.5872 20.9498 63.6355C20.9433 63.6839 20.941 63.7324 20.9429 63.7812C20.9449 63.83 20.9512 63.8783 20.9616 63.926C21.39 66.4199 22.4786 68.5804 24.2275 70.4076C25.7794 72.0289 27.9083 73.4349 30.6142 74.6257C32.8477 75.6087 35.6753 76.5237 39.0969 77.3709C41.1498 77.8791 44.4079 78.5779 48.8713 79.4671C50.709 79.8333 52.0977 80.1133 53.0373 80.3072Z" fill="url(#paint5_linear_11546_1058)"/>
<path fill-rule="evenodd" clip-rule="evenodd" d="M148.762 69.331C148.821 69.2931 148.875 69.2485 148.922 69.1971C148.97 69.1458 149.011 69.0894 149.045 69.0278C149.078 68.9663 149.104 68.9015 149.121 68.8336C149.138 68.7656 149.147 68.6966 149.147 68.6264C149.147 68.599 149.146 68.5717 149.143 68.5444C149.14 68.5171 149.136 68.49 149.131 68.4631C149.126 68.4362 149.119 68.4096 149.111 68.3834C149.103 68.3571 149.094 68.3313 149.083 68.306C149.073 68.2807 149.061 68.2559 149.048 68.2317C149.035 68.2075 149.021 68.184 149.006 68.1612C148.991 68.1384 148.974 68.1164 148.957 68.0952C148.94 68.074 148.921 68.0537 148.902 68.0343C148.882 68.0149 148.862 67.9965 148.841 67.9791C148.82 67.9617 148.798 67.9454 148.775 67.9302C148.752 67.915 148.729 67.9009 148.705 67.8879C148.68 67.875 148.655 67.8633 148.63 67.8528C148.605 67.8423 148.579 67.8331 148.553 67.8251C148.526 67.8172 148.5 67.8105 148.473 67.8052C148.446 67.7998 148.419 67.7958 148.391 67.7931C148.364 67.7904 148.337 67.7891 148.309 67.7891C148.216 67.7891 148.125 67.8044 148.036 67.8349C147.948 67.8655 147.867 67.9097 147.793 67.9674C141.888 72.1577 133.449 75.3804 122.476 77.6355C111.009 79.9921 97.3219 81.1714 81.4159 81.1733C81.4028 81.1727 81.3897 81.1724 81.3766 81.1724C81.3492 81.1724 81.3218 81.1738 81.2945 81.1764C81.2672 81.1791 81.2401 81.1832 81.2132 81.1885C81.1863 81.1938 81.1598 81.2005 81.1335 81.2084C81.1073 81.2164 81.0815 81.2257 81.0561 81.2362C81.0308 81.2467 81.006 81.2584 80.9818 81.2712C80.9576 81.2842 80.9341 81.2983 80.9113 81.3135C80.8885 81.3288 80.8665 81.3451 80.8453 81.3625C80.8241 81.3799 80.8038 81.3982 80.7844 81.4177C80.765 81.437 80.7466 81.4573 80.7292 81.4786C80.7118 81.4998 80.6955 81.5217 80.6802 81.5446C80.665 81.5674 80.6509 81.5909 80.638 81.6151C80.625 81.6392 80.6133 81.664 80.6028 81.6893C80.5923 81.7147 80.5831 81.7405 80.5751 81.7667C80.5672 81.7929 80.5605 81.8195 80.5552 81.8464C80.5498 81.8733 80.5458 81.9004 80.5431 81.9277C80.5404 81.955 80.5391 81.9823 80.5391 82.0098C80.5391 82.0372 80.5404 82.0646 80.5431 82.0919C80.5458 82.1192 80.5498 82.1462 80.5552 82.1732C80.5605 82.2 80.5672 82.2266 80.5751 82.2529C80.5831 82.2791 80.5923 82.3049 80.6028 82.3302C80.6133 82.3556 80.625 82.3803 80.638 82.4045C80.6509 82.4287 80.665 82.4522 80.6802 82.475C80.6955 82.4978 80.7118 82.5198 80.7292 82.541C80.7466 82.5622 80.765 82.5825 80.7844 82.6019C80.8038 82.6213 80.8241 82.6397 80.8453 82.6571C80.8665 82.6745 80.8885 82.6908 80.9113 82.706C80.9341 82.7213 80.9576 82.7353 80.9818 82.7483C81.006 82.7612 81.0308 82.7729 81.0561 82.7834C81.0815 82.7939 81.1073 82.8032 81.1335 82.8111C81.1598 82.819 81.1863 82.8257 81.2132 82.8311C81.2401 82.8364 81.2672 82.8404 81.2945 82.8431C81.3218 82.8458 81.3492 82.8472 81.3766 82.8472C81.3898 82.8472 81.4029 82.8469 81.416 82.8462C97.4354 82.8443 111.234 81.6536 122.813 79.2742C134.017 76.9717 142.666 73.6573 148.762 69.331Z" fill="url(#paint6_linear_11546_1058)"/>
<defs>
<filter id="filter0_i_11546_1058" x="13.627" y="41.2109" width="145.105" height="46.3711" filterUnits="userSpaceOnUse" color-interpolation-filters="sRGB">
<feFlood flood-opacity="0" result="BackgroundImageFix"/>
<feBlend mode="normal" in="SourceGraphic" in2="BackgroundImageFix" result="shape"/>
<feColorMatrix in="SourceAlpha" type="matrix" values="0 0 0 0 0 0 0 0 0 0 0 0 0 0 0 0 0 0 127 0" result="hardAlpha"/>
<feOffset/>
<feGaussianBlur stdDeviation="3.95747"/>
<feComposite in2="hardAlpha" operator="arithmetic" k2="-1" k3="1"/>
<feColorMatrix type="matrix" values="0 0 0 0 1 0 0 0 0 1 0 0 0 0 1 0 0 0 1 0"/>
<feBlend mode="normal" in2="shape" result="effect1_innerShadow_11546_1058"/>
</filter>
<linearGradient id="paint0_linear_11546_1058" x1="86.1762" y1="86.1454" x2="86.1762" y2="15.8828" gradientUnits="userSpaceOnUse">
<stop stop-color="white" stop-opacity="0"/>
<stop offset="0.485714" stop-color="white" stop-opacity="0.4"/>
<stop offset="1" stop-color="white" stop-opacity="0"/>
</linearGradient>
<linearGradient id="paint1_linear_11546_1058" x1="85.9971" y1="61.8979" x2="85.9971" y2="0" gradientUnits="userSpaceOnUse">
<stop stop-color="white" stop-opacity="0.6"/>
<stop offset="0.485714" stop-color="white" stop-opacity="0.45"/>
<stop offset="1" stop-color="white" stop-opacity="0"/>
</linearGradient>
<linearGradient id="paint2_linear_11546_1058" x1="87.0135" y1="36.793" x2="87.0135" y2="91.9992" gradientUnits="userSpaceOnUse">
<stop stop-color="white" stop-opacity="0.24"/>
<stop offset="1" stop-color="white" stop-opacity="0.07"/>
</linearGradient>
<linearGradient id="paint3_linear_11546_1058" x1="87.0135" y1="91.9992" x2="87.0135" y2="36.793" gradientUnits="userSpaceOnUse">
<stop offset="0.102366" stop-color="white"/>
<stop offset="1" stop-color="white" stop-opacity="0.2"/>
</linearGradient>
<linearGradient id="paint4_linear_11546_1058" x1="86.1794" y1="41.8125" x2="86.1794" y2="86.9813" gradientUnits="userSpaceOnUse">
<stop stop-color="white" stop-opacity="0"/>
<stop offset="1" stop-color="white"/>
</linearGradient>
<linearGradient id="paint5_linear_11546_1058" x1="56.559" y1="77.1389" x2="24.8475" y2="74.0144" gradientUnits="userSpaceOnUse">
<stop stop-color="white"/>
<stop offset="1" stop-color="white" stop-opacity="0"/>
</linearGradient>
<linearGradient id="paint6_linear_11546_1058" x1="149.147" y1="66.7303" x2="144.864" y2="90.7604" gradientUnits="userSpaceOnUse">
<stop stop-color="white"/>
<stop offset="1" stop-color="white" stop-opacity="0"/>
</linearGradient>
</defs>
</svg>
