<svg width="45" height="45" viewBox="0 0 45 45" fill="none" xmlns="http://www.w3.org/2000/svg">
<path d="M30.3965 10.1699H28.7881C28.3091 10.1699 27.918 9.77881 27.918 9.2998C27.918 8.8208 28.3091 8.42969 28.7881 8.42969H30.3965C30.8755 8.42969 31.2666 8.8208 31.2666 9.2998C31.2666 9.77881 30.8755 10.1699 30.3965 10.1699ZM30.3965 13.4351H28.7881C28.3091 13.4351 27.918 13.0439 27.918 12.5649C27.918 12.0859 28.3091 11.6948 28.7881 11.6948H30.3965C30.8755 11.6948 31.2666 12.0859 31.2666 12.5649C31.2666 13.0439 30.8755 13.4351 30.3965 13.4351ZM30.3965 16.7002H28.7881C28.3091 16.7002 27.918 16.3091 27.918 15.8301C27.918 15.3511 28.3091 14.96 28.7881 14.96H30.3965C30.8755 14.96 31.2666 15.3511 31.2666 15.8301C31.2666 16.3047 30.8755 16.7002 30.3965 16.7002Z" fill="#333333" fill-opacity="0.8"/>
<path d="M26.5127 25.9155V7.01025C26.5127 4.72949 24.6582 2.875 22.3774 2.875C20.0967 2.875 18.2422 4.72949 18.2422 7.01025V25.9155C15.5615 27.3833 13.7422 30.231 13.7422 33.4961C13.7422 38.2598 17.6182 42.1314 22.3774 42.1314C27.1367 42.1314 31.0127 38.2554 31.0127 33.4961C31.0127 30.231 29.189 27.3833 26.5127 25.9155ZM22.373 40.3164C18.6113 40.3164 15.5483 37.2534 15.5483 33.4917C15.5483 31.2812 16.603 29.3169 18.2378 28.0688C18.7827 27.6514 19.3936 27.313 20.0483 27.0757V7.01025C20.0483 5.72705 21.0898 4.68555 22.373 4.68555C23.6562 4.68555 24.6978 5.72705 24.6978 7.01025V27.0757C25.3525 27.313 25.9634 27.6514 26.5083 28.0688C28.1387 29.3169 29.1978 31.2812 29.1978 33.4917C29.1978 37.2578 26.1392 40.3164 22.373 40.3164Z" fill="#333333" fill-opacity="0.8"/>
<path d="M18.7246 33.6841C18.7246 34.1648 18.8193 34.6408 19.0033 35.0849C19.1872 35.5291 19.4569 35.9326 19.7968 36.2725C20.1367 36.6125 20.5403 36.8821 20.9844 37.0661C21.4285 37.25 21.9045 37.3447 22.3853 37.3447C22.866 37.3447 23.342 37.25 23.7861 37.0661C24.2303 36.8821 24.6338 36.6125 24.9737 36.2725C25.3136 35.9326 25.5833 35.5291 25.7672 35.0849C25.9512 34.6408 26.0459 34.1648 26.0459 33.6841C26.0459 32.7132 25.6602 31.7821 24.9737 31.0956C24.2872 30.4091 23.3561 30.0234 22.3853 30.0234C21.4144 30.0234 20.4833 30.4091 19.7968 31.0956C19.1103 31.7821 18.7246 32.7132 18.7246 33.6841Z" fill="#4EAFFF"/>
<path d="M26.9545 33.7153C26.537 33.6362 26.1327 33.8779 26.0009 34.2734C25.7197 36.0137 24.2079 37.3452 22.3886 37.3452C20.3671 37.3452 18.728 35.7061 18.728 33.6846C18.728 31.6631 20.3671 30.0239 22.3886 30.0239C22.683 30.0239 22.9687 30.0591 23.2411 30.125C23.2455 30.0898 23.2499 30.0547 23.2499 30.0239V9.12793C23.2499 8.6665 22.872 8.29297 22.415 8.29297C21.9535 8.29297 21.58 8.6709 21.58 9.12793V28.4683C21.5405 28.4683 21.4965 28.4727 21.457 28.4814C19.3036 28.8813 17.6425 30.5293 17.225 32.6782C16.6669 35.5435 18.5478 38.3296 21.413 38.8833C21.7514 38.9492 22.0898 38.98 22.4238 38.98C24.9067 38.98 27.1303 37.2222 27.6181 34.6953C27.7016 34.2427 27.4072 33.8032 26.9545 33.7153Z" fill="#333333" fill-opacity="0.8"/>
</svg>
