<svg width="33" height="33" viewBox="0 0 33 33" fill="none" xmlns="http://www.w3.org/2000/svg">
<g clip-path="url(#clip0_10089_7900)">
<path d="M13.9328 15.5704L11.9268 18.4314H7.89844V16.6062H10.9732L14.1795 12.0352L17.4679 18.4642L19.9343 14.1399L21.6937 17.675H27.1854V19.5001H20.5591L19.8192 18.0203L17.3857 22.3118L13.9328 15.5704ZM20.8551 6.49414L19.4739 8.59877H22.1047L17.8297 13.3342L19.3917 10.0457H17.5337L18.8327 6.49414H20.8551Z" fill="#FF5959"/>
<path d="M26.2153 29.7939H27.6787L28.5 28.5H7L6.48438 29.7939H7.94775V30.8627C7.94775 32.0466 8.90142 33.0002 10.0853 33.0002H24.0778C25.2617 33.0002 26.2153 32.0466 26.2153 30.8627V29.7939Z" fill="#333333" fill-opacity="0.8"/>
<path d="M25.5941 30.4185H8.39535C5.15618 30.4185 2.52539 27.7877 2.52539 24.5486V5.86995C2.52539 2.63079 5.15618 0 8.39535 0H25.5941C28.8333 0 31.4641 2.63079 31.4641 5.86995V24.5486C31.4641 27.7877 28.8333 30.4185 25.5941 30.4185ZM8.39535 2.30194C6.42225 2.30194 4.82733 3.89686 4.82733 5.86995V24.5486C4.82733 26.5217 6.42225 28.1166 8.39535 28.1166H25.5941C27.5672 28.1166 29.1622 26.5217 29.1622 24.5486V5.86995C29.1622 3.89686 27.5672 2.30194 25.5941 2.30194H8.39535Z" fill="#515254"/>
</g>
<defs>
<clipPath id="clip0_10089_7900">
<rect width="33" height="33" fill="white"/>
</clipPath>
</defs>
</svg>
