<svg width="40" height="40" viewBox="0 0 40 40" fill="none" xmlns="http://www.w3.org/2000/svg">
<path d="M36.6673 20.0006C36.6673 29.1673 29.1673 36.6673 20.0006 36.6673C10.834 36.6673 3.33398 29.1673 3.33398 20.0006C3.33398 10.834 10.834 3.33398 20.0006 3.33398V8.33398C13.5006 8.33398 8.33398 13.5006 8.33398 20.0006C8.33398 26.5006 13.5006 31.6673 20.0006 31.6673C26.5006 31.6673 31.6673 26.5006 31.6673 20.0006H36.6673ZM34.834 21.6673H33.1673C32.334 28.1673 26.6673 33.334 20.0006 33.334C12.6673 33.334 6.66732 27.334 6.66732 20.0006C6.66732 13.1673 11.834 7.66732 18.334 6.83398V5.16732C10.834 6.00065 5.00065 12.334 5.00065 20.0006C5.00065 28.334 11.6673 35.0006 20.0006 35.0006C27.6673 35.0006 34.0006 29.1673 34.834 21.6673ZM31.334 17.5006L36.1673 16.334C34.834 10.0006 29.834 5.00065 23.5006 3.66732L22.334 8.50065C27.0006 9.66732 30.334 13.0007 31.334 17.5006Z" fill="#333333" fill-opacity="0.8"/>
<path d="M21.6641 18.332V13.332L16.6641 21.6654H19.9974V26.6654L24.9974 18.332H21.6641Z" fill="#19DEEC"/>
</svg>
