<svg width="40" height="40" viewBox="0 0 40 40" fill="none" xmlns="http://www.w3.org/2000/svg">
<path d="M28.8613 32.8742C24.443 32.8742 20.8613 29.2925 20.8613 24.8742C20.8613 18.5007 26.4577 12.7504 28.2885 11.0397C28.2938 11.0451 28.2998 11.0498 28.3053 11.0551C28.3774 10.9759 28.465 10.9125 28.5627 10.8688C28.6604 10.8251 28.7661 10.8019 28.8731 10.8009C28.9802 10.7998 29.0863 10.8208 29.1848 10.8626C29.2834 10.9044 29.3723 10.966 29.4459 11.0437C31.2886 12.7456 36.8613 18.4258 36.8613 24.8742C36.8613 29.2925 33.2796 32.8742 28.8613 32.8742ZM29.4112 14.2639L29.4086 14.2661C29.3469 14.1846 29.2671 14.1186 29.1755 14.0731C29.084 14.0276 28.9831 14.004 28.8809 14.004C28.7787 14.004 28.6778 14.0276 28.5863 14.0731C28.4947 14.1186 28.4149 14.1846 28.3532 14.2661C28.3473 14.2607 28.341 14.2558 28.3353 14.2502C26.9272 15.8067 23.1779 20.3719 23.1779 24.8516C23.1779 27.9861 25.7225 30.5271 28.8615 30.5271C32.0005 30.5271 34.5449 27.986 34.5449 24.8516C34.5449 20.282 30.8369 15.8134 29.4112 14.2639ZM22.3965 12.9883C22.1994 12.9883 22.0056 12.9385 21.8329 12.8436C21.6602 12.7487 21.5143 12.6117 21.4087 12.4453C21.404 12.4514 21.3988 12.457 21.3944 12.4635C19.3883 9.5021 17.2389 7.32769 16.2281 6.35155C16.2227 6.35784 16.2164 6.3244 16.2107 6.33054C16.1459 6.23921 16.0601 6.16474 15.9606 6.11335C15.861 6.06196 15.7506 6.03514 15.6386 6.03514C15.5266 6.03514 15.4162 6.06196 15.3167 6.11335C15.2172 6.16474 15.1314 6.23921 15.0665 6.33054C15.0631 6.32683 15.0592 6.32351 15.0558 6.31968C12.8977 8.45171 5.48242 16.3906 5.48242 24.8242C5.48242 30.4333 10.0295 34.9805 15.6387 34.9805C17.6985 34.9836 19.7102 34.3573 21.4043 33.1855C21.5199 33.0778 21.6562 32.9947 21.8048 32.9411C21.9534 32.8875 22.1113 32.8646 22.2691 32.8736C22.4268 32.8827 22.5811 32.9235 22.7226 32.9938C22.8641 33.0641 22.9899 33.1622 23.0925 33.2824C23.195 33.4026 23.2722 33.5422 23.3194 33.693C23.3665 33.8438 23.3827 34.0026 23.3669 34.1598C23.351 34.317 23.3035 34.4693 23.2273 34.6077C23.151 34.746 23.0475 34.8675 22.923 34.9648C22.9257 34.9685 22.9282 34.9724 22.9309 34.976C20.8077 36.5063 18.2559 37.328 15.6387 37.3242C8.73512 37.3242 3.13867 31.7278 3.13867 24.8242C3.13867 14.4749 12.584 5.17577 15.0534 2.92136C15.0565 2.9244 15.06 2.92702 15.0631 2.93003C15.1329 2.85344 15.2173 2.79155 15.3113 2.74797C15.4052 2.7044 15.507 2.68003 15.6105 2.67629C15.7141 2.67255 15.8173 2.68951 15.9142 2.72617C16.0111 2.76284 16.0997 2.81848 16.1748 2.88983C16.1782 2.8862 16.1819 2.88292 16.1852 2.87921C17.4237 3.99128 20.5504 6.97452 23.2952 11.0451L23.2866 11.0555C23.4324 11.2256 23.5263 11.4339 23.5572 11.6558C23.5881 11.8776 23.5547 12.1037 23.461 12.3071C23.3673 12.5106 23.2172 12.6829 23.0285 12.8036C22.8398 12.9244 22.6205 12.9884 22.3965 12.9883Z" fill="#333333" fill-opacity="0.8"/>
<path d="M16.7715 30.1753C16.399 30.2541 16.0194 30.2938 15.6387 30.2938C14.7973 30.2934 13.9674 30.0989 13.2134 29.7256C12.4595 29.3522 11.8018 28.8101 11.2914 28.1412C10.7811 27.4723 10.4318 26.6947 10.2709 25.8689C10.1099 25.0431 10.1415 24.1913 10.3633 23.3798H10.3477C10.3748 23.2252 10.3706 23.0669 10.3354 22.914C10.3002 22.7611 10.2346 22.6169 10.1426 22.4899C10.0505 22.3628 9.93388 22.2556 9.79959 22.1745C9.6653 22.0934 9.51609 22.0401 9.36081 22.0178C9.20553 21.9955 9.04735 22.0046 8.89565 22.0445C8.74396 22.0845 8.60184 22.1546 8.47774 22.2505C8.35364 22.3465 8.25008 22.4664 8.17322 22.6032C8.09635 22.7399 8.04774 22.8907 8.03027 23.0466C7.89448 23.6297 7.826 24.2264 7.82617 24.8251C7.82617 29.1398 11.3239 32.6376 15.6387 32.6376C16.1103 32.6377 16.5809 32.5953 17.0449 32.511V32.5087C17.3393 32.469 17.6077 32.319 17.7957 32.0889C17.9836 31.8589 18.0772 31.566 18.0573 31.2696C18.0374 30.9732 17.9057 30.6954 17.6887 30.4924C17.4717 30.2895 17.1858 30.1766 16.8887 30.1766C16.8491 30.1766 16.81 30.1786 16.7715 30.1825V30.1753Z" fill="#12D57A"/>
<path d="M29.4667 28.6134H29.623C29.9338 28.6134 30.2319 28.4899 30.4516 28.2701C30.6714 28.0504 30.7949 27.7523 30.7949 27.4415C30.7949 27.1307 30.6714 26.8326 30.4516 26.6129C30.2319 26.3931 29.9338 26.2696 29.623 26.2696V26.2628C29.5714 26.2669 29.5194 26.2696 29.4667 26.2696C28.9487 26.2696 28.452 26.0639 28.0857 25.6976C27.7194 25.3313 27.5136 24.8345 27.5136 24.3165C27.5136 23.8706 27.5917 23.6221 27.5917 23.5157C27.5918 23.2463 27.4973 22.9853 27.3249 22.7782C27.1525 22.5712 26.9129 22.4311 26.6479 22.3823C26.3829 22.3335 26.1092 22.3792 25.8743 22.5113C25.6395 22.6435 25.4584 22.8537 25.3625 23.1056H25.3441C25.1559 23.7463 25.1196 24.422 25.2381 25.0791C25.3567 25.7363 25.6267 26.3568 26.0268 26.8913C26.427 27.4259 26.9462 27.8599 27.5433 28.1588C28.1404 28.4577 28.799 28.6134 29.4667 28.6134Z" fill="#12D57A"/>
</svg>
