<svg width="29" height="29" viewBox="0 0 29 29" fill="none" xmlns="http://www.w3.org/2000/svg">
<g opacity="0.3" filter="url(#filter0_b_11276_1884)">
<path d="M23.7124 28.1597H3.37848C1.82354 28.1597 0.507812 26.844 0.507812 25.1694V18.3516H26.583V25.1694C26.583 26.844 25.2673 28.1597 23.7124 28.1597ZM16.7749 21.7007H3.73731V24.9302H16.7749V21.7007ZM23.3535 21.7007H20.124V24.9302H23.3535V21.7007ZM0.507812 4.95512C0.507812 3.28057 1.82354 1.96484 3.37848 1.96484H23.7124C25.2673 1.96484 26.583 3.28057 26.583 4.95512V16.677H0.507812V4.95512ZM5.7707 13.926L8.16293 9.85918L13.665 13.5671L16.6553 8.90229L22.5163 12.2514L23.832 9.85918L15.6984 4.7159L12.9474 9.50035L6.96682 6.27085L3.37848 12.6102L5.7707 13.926Z" fill="#0758B3"/>
</g>
<g filter="url(#filter1_b_11276_1884)">
<path d="M25.1069 27.1948H4.77301C3.21807 27.1948 1.90234 25.8791 1.90234 24.2046V17.3867H27.9776V24.2046C27.9776 25.8791 26.6619 27.1948 25.1069 27.1948ZM18.1695 20.7358H5.13185V23.9653H18.1695V20.7358ZM24.7481 20.7358H21.5186V23.9653H24.7481V20.7358ZM1.90234 3.99028C1.90234 2.31572 3.21807 1 4.77301 1H25.1069C26.6619 1 27.9776 2.31572 27.9776 3.99028V15.7122H1.90234V3.99028ZM7.16524 12.9611L9.55746 8.89434L15.0596 12.6023L18.0499 7.93745L23.9108 11.2866L25.2265 8.89434L17.093 3.75106L14.3419 8.5355L8.36135 5.306L4.77301 11.6454L7.16524 12.9611Z" fill="url(#paint0_linear_11276_1884)"/>
<path d="M1.90234 17.138H1.65361V17.3867V24.2046C1.65361 26.0098 3.07414 27.4436 4.77301 27.4436H25.1069C26.8058 27.4436 28.2263 26.0098 28.2263 24.2046V17.3867V17.138H27.9776H1.90234ZM27.9776 15.9609H28.2263V15.7122V3.99028C28.2263 2.185 26.8058 0.751266 25.1069 0.751266H4.77301C3.07414 0.751266 1.65361 2.185 1.65361 3.99028V15.7122V15.9609H1.90234H27.9776ZM14.9875 12.2538L9.69647 8.68807L9.47715 8.54027L9.34307 8.76822L7.07337 12.6267L5.11351 11.5488L8.4577 5.64072L14.2237 8.75437L14.4368 8.86944L14.5575 8.65949L17.1793 4.09993L24.8958 8.9795L23.8147 10.9452L18.1733 7.72149L17.968 7.60421L17.8404 7.80322L14.9875 12.2538ZM5.38058 23.7166V20.9846H17.9207V23.7166H5.38058ZM21.7673 23.7166V20.9846H24.4993V23.7166H21.7673Z" stroke="url(#paint1_linear_11276_1884)" stroke-width="0.497469"/>
</g>
<defs>
<filter id="filter0_b_11276_1884" x="-25.0992" y="-23.6422" width="77.2903" height="77.4094" filterUnits="userSpaceOnUse" color-interpolation-filters="sRGB">
<feFlood flood-opacity="0" result="BackgroundImageFix"/>
<feGaussianBlur in="BackgroundImageFix" stdDeviation="12.8035"/>
<feComposite in2="SourceAlpha" operator="in" result="effect1_backgroundBlur_11276_1884"/>
<feBlend mode="normal" in="SourceGraphic" in2="effect1_backgroundBlur_11276_1884" result="shape"/>
</filter>
<filter id="filter1_b_11276_1884" x="-15.6924" y="-16.5947" width="61.2637" height="61.3828" filterUnits="userSpaceOnUse" color-interpolation-filters="sRGB">
<feFlood flood-opacity="0" result="BackgroundImageFix"/>
<feGaussianBlur in="BackgroundImageFix" stdDeviation="8.54835"/>
<feComposite in2="SourceAlpha" operator="in" result="effect1_backgroundBlur_11276_1884"/>
<feBlend mode="normal" in="SourceGraphic" in2="effect1_backgroundBlur_11276_1884" result="shape"/>
</filter>
<linearGradient id="paint0_linear_11276_1884" x1="1.90234" y1="14.0974" x2="34.2108" y2="14.1692" gradientUnits="userSpaceOnUse">
<stop offset="0.0823979" stop-color="#3F99FF"/>
<stop offset="0.98195" stop-color="#62CBFF" stop-opacity="0.3"/>
</linearGradient>
<linearGradient id="paint1_linear_11276_1884" x1="19.8073" y1="1" x2="-4.49579" y2="8.04424" gradientUnits="userSpaceOnUse">
<stop stop-color="#CCF3FF"/>
<stop offset="0.985029" stop-color="#53A7FF"/>
</linearGradient>
</defs>
</svg>
