<svg width="73" height="34" viewBox="0 0 73 34" fill="none" xmlns="http://www.w3.org/2000/svg">
<path d="M69.4878 21.7063C69.4878 23.1489 68.624 24.5647 66.9662 25.8907C65.311 27.2146 62.8993 28.4187 59.895 29.4351C53.8893 31.4668 45.5752 32.7283 36.3791 32.7283C27.183 32.7283 18.8689 31.4668 12.8632 29.4351C9.85893 28.4187 7.44719 27.2146 5.79197 25.8907C4.13415 24.5647 3.27037 23.1489 3.27037 21.7063C3.27037 20.2638 4.13415 18.848 5.79197 17.522C7.44719 16.1981 9.85893 14.9939 12.8632 13.9776C18.8689 11.9458 27.183 10.6844 36.3791 10.6844C45.5752 10.6844 53.8893 11.9458 59.895 13.9776C62.8993 14.9939 65.311 16.1981 66.9662 17.522C68.624 18.848 69.4878 20.2638 69.4878 21.7063Z" stroke="url(#paint0_linear_11276_1783)" stroke-width="0.540743"/>
<g filter="url(#filter0_i_11276_1783)">
<ellipse cx="36.3791" cy="19.4153" rx="33.3791" ry="11.2923" fill="url(#paint1_linear_11276_1783)" fill-opacity="0.32"/>
</g>
<path d="M69.3076 19.4153C69.3076 20.7801 68.4906 22.1496 66.8536 23.4589C65.221 24.7647 62.8308 25.9606 59.8373 26.9733C53.8547 28.9973 45.561 30.257 36.3791 30.257C27.1972 30.257 18.9035 28.9973 12.9209 26.9733C9.92735 25.9606 7.5372 24.7647 5.90456 23.4589C4.26757 22.1496 3.45062 20.7801 3.45062 19.4153C3.45062 18.0506 4.26757 16.6811 5.90456 15.3718C7.5372 14.0659 9.92735 12.8701 12.9209 11.8573C18.9035 9.8334 27.1972 8.57367 36.3791 8.57367C45.561 8.57367 53.8547 9.8334 59.8373 11.8573C62.8308 12.8701 65.221 14.0659 66.8536 15.3718C68.4906 16.6811 69.3076 18.0506 69.3076 19.4153Z" stroke="url(#paint2_linear_11276_1783)" stroke-width="0.901238"/>
<g opacity="0.4" filter="url(#filter1_f_11276_1783)">
<ellipse cx="36.5091" cy="16.7327" rx="29.5091" ry="9.82646" fill="#33DAFF" fill-opacity="0.2"/>
</g>
<path d="M53.9414 17.7615C53.9414 18.4122 53.5122 19.0718 52.641 19.7055C51.7744 20.336 50.507 20.9124 48.9221 21.4001C45.7548 22.3746 41.3666 22.9805 36.5105 22.9805C31.6543 22.9805 27.2661 22.3746 24.0988 21.4001C22.5139 20.9124 21.2465 20.336 20.3799 19.7055C19.5087 19.0718 19.0795 18.4122 19.0795 17.7615C19.0795 17.1107 19.5087 16.4512 20.3799 15.8174C21.2465 15.187 22.5139 14.6106 24.0988 14.1229C27.2661 13.1483 31.6543 12.5424 36.5105 12.5424C41.3666 12.5424 45.7548 13.1483 48.9221 14.1229C50.507 14.6106 51.7744 15.187 52.641 15.8174C53.5122 16.4512 53.9414 17.1107 53.9414 17.7615Z" stroke="url(#paint3_linear_11276_1783)" stroke-width="0.416895"/>
<path d="M53.8622 14.775C53.8622 15.432 53.4499 16.1071 52.589 16.7647C51.7324 17.419 50.4748 18.0206 48.8949 18.531C45.7385 19.5508 41.3599 20.1863 36.5105 20.1863C31.6611 20.1863 27.2824 19.5508 24.126 18.531C22.5461 18.0206 21.2885 17.419 20.4319 16.7647C19.571 16.1071 19.1588 15.432 19.1588 14.775C19.1588 14.118 19.571 13.443 20.4319 12.7854C21.2885 12.1311 22.5461 11.5295 24.126 11.0191C27.2824 9.99928 31.6611 9.36383 36.5105 9.36383C41.3599 9.36383 45.7385 9.99928 48.8949 11.0191C50.4748 11.5295 51.7324 12.1311 52.589 12.7854C53.4499 13.443 53.8622 14.118 53.8622 14.775Z" fill="url(#paint4_linear_11276_1783)" stroke="url(#paint5_linear_11276_1783)" stroke-width="0.575314"/>
<ellipse opacity="0.2" cx="36.5" cy="15" rx="2.5" ry="1" fill="white"/>
<path d="M16.6953 11.4629C16.6953 11.1867 16.9192 10.9629 17.1953 10.9629C17.4715 10.9629 17.6953 11.1867 17.6953 11.4629V14.2194H16.6953V11.4629Z" fill="url(#paint6_linear_11276_1783)"/>
<path d="M56.7305 16.0898C56.7305 15.8137 56.9543 15.5898 57.2305 15.5898C57.5066 15.5898 57.7305 15.8137 57.7305 16.0898V20.4746H56.7305V16.0898Z" fill="url(#paint7_linear_11276_1783)"/>
<path d="M21.4531 20.9746C21.4531 20.6985 21.677 20.4746 21.9531 20.4746C22.2293 20.4746 22.4531 20.6985 22.4531 20.9746V25.3594H21.4531V20.9746Z" fill="url(#paint8_linear_11276_1783)"/>
<defs>
<filter id="filter0_i_11276_1783" x="3" y="6.17754" width="66.7578" height="24.5295" filterUnits="userSpaceOnUse" color-interpolation-filters="sRGB">
<feFlood flood-opacity="0" result="BackgroundImageFix"/>
<feBlend mode="normal" in="SourceGraphic" in2="BackgroundImageFix" result="shape"/>
<feColorMatrix in="SourceAlpha" type="matrix" values="0 0 0 0 0 0 0 0 0 0 0 0 0 0 0 0 0 0 127 0" result="hardAlpha"/>
<feOffset dy="-1.94551"/>
<feGaussianBlur stdDeviation="1.11172"/>
<feComposite in2="hardAlpha" operator="arithmetic" k2="-1" k3="1"/>
<feColorMatrix type="matrix" values="0 0 0 0 1 0 0 0 0 1 0 0 0 0 1 0 0 0 0.19 0"/>
<feBlend mode="normal" in2="shape" result="effect1_innerShadow_11276_1783"/>
</filter>
<filter id="filter1_f_11276_1783" x="0.487006" y="0.393256" width="72.0436" height="32.6783" filterUnits="userSpaceOnUse" color-interpolation-filters="sRGB">
<feFlood flood-opacity="0" result="BackgroundImageFix"/>
<feBlend mode="normal" in="SourceGraphic" in2="BackgroundImageFix" result="shape"/>
<feGaussianBlur stdDeviation="3.2565" result="effect1_foregroundBlur_11276_1783"/>
</filter>
<linearGradient id="paint0_linear_11276_1783" x1="36.3791" y1="10.4141" x2="36.3791" y2="32.9986" gradientUnits="userSpaceOnUse">
<stop stop-color="white" stop-opacity="0.03"/>
<stop offset="0.739245" stop-color="white" stop-opacity="0.13"/>
<stop offset="1" stop-color="white" stop-opacity="0.7"/>
</linearGradient>
<linearGradient id="paint1_linear_11276_1783" x1="36.3791" y1="8.12305" x2="36.3791" y2="30.7076" gradientUnits="userSpaceOnUse">
<stop stop-color="white" stop-opacity="0"/>
<stop offset="1" stop-color="white" stop-opacity="0.76"/>
</linearGradient>
<linearGradient id="paint2_linear_11276_1783" x1="36.3791" y1="8.12305" x2="36.3791" y2="30.7076" gradientUnits="userSpaceOnUse">
<stop stop-color="white" stop-opacity="0"/>
<stop offset="0.739245" stop-color="white" stop-opacity="0.75"/>
<stop offset="1" stop-color="white"/>
</linearGradient>
<linearGradient id="paint3_linear_11276_1783" x1="36.5105" y1="12.334" x2="36.5105" y2="23.189" gradientUnits="userSpaceOnUse">
<stop stop-color="white" stop-opacity="0.03"/>
<stop offset="0.739245" stop-color="white" stop-opacity="0.25"/>
<stop offset="1" stop-color="white" stop-opacity="0.67"/>
</linearGradient>
<linearGradient id="paint4_linear_11276_1783" x1="36.5105" y1="9.07617" x2="36.5105" y2="20.4739" gradientUnits="userSpaceOnUse">
<stop stop-color="#65B9FF" stop-opacity="0.34"/>
<stop offset="1" stop-color="#2A98FF"/>
</linearGradient>
<linearGradient id="paint5_linear_11276_1783" x1="36.5105" y1="9.07617" x2="36.5105" y2="20.4739" gradientUnits="userSpaceOnUse">
<stop stop-color="white" stop-opacity="0.63"/>
<stop offset="0.739245" stop-color="white" stop-opacity="0.75"/>
<stop offset="1" stop-color="white" stop-opacity="0.9"/>
</linearGradient>
<linearGradient id="paint6_linear_11276_1783" x1="17.1953" y1="10.9629" x2="17.1953" y2="13.7052" gradientUnits="userSpaceOnUse">
<stop stop-color="white" stop-opacity="0.58"/>
<stop offset="1" stop-color="white" stop-opacity="0"/>
</linearGradient>
<linearGradient id="paint7_linear_11276_1783" x1="57.2305" y1="15.5898" x2="57.2305" y2="19.7033" gradientUnits="userSpaceOnUse">
<stop stop-color="white" stop-opacity="0.58"/>
<stop offset="1" stop-color="white" stop-opacity="0"/>
</linearGradient>
<linearGradient id="paint8_linear_11276_1783" x1="21.9531" y1="20.4746" x2="21.9531" y2="24.5881" gradientUnits="userSpaceOnUse">
<stop stop-color="white" stop-opacity="0.58"/>
<stop offset="1" stop-color="white" stop-opacity="0"/>
</linearGradient>
</defs>
</svg>
