<svg width="31" height="31" viewBox="0 0 31 31" fill="none" xmlns="http://www.w3.org/2000/svg">
<rect width="29.9997" height="30.0003" rx="7.48905" transform="matrix(1.00001 0.000482351 0.000507218 0.99999 0 0)" fill="url(#paint0_linear_11276_1964)"/>
<path d="M22.1261 20.7832L21.9892 20.7832L21.0771 19.871C21.0315 19.8254 21.0315 19.7798 21.0315 19.6886L21.0315 17.1803C22.6277 16.4962 23.7679 14.8544 23.7679 12.9845C23.7679 10.4762 21.7156 8.42387 19.2072 8.42387L18.888 8.42387C18.2495 6.82767 16.6989 5.6875 14.8747 5.6875C12.7312 5.6875 10.9069 7.28373 10.5877 9.33601L10.5421 9.33601C8.26174 9.33601 6.4375 11.1602 6.4375 13.4406C6.4375 15.4929 7.94251 17.1803 9.85797 17.4995L9.85797 18.6397C9.85797 18.6853 9.85797 18.7309 9.81237 18.7765L8.44418 20.7376C7.85129 20.7376 7.34963 21.2392 7.34963 21.8777C7.30401 22.5618 7.80569 23.0635 8.44418 23.0635C9.08268 23.0635 9.58433 22.5618 9.58433 21.9233C9.58433 21.7865 9.53873 21.6953 9.53873 21.5585L10.9069 19.5518C11.0893 19.2782 11.1806 18.9589 11.1806 18.6397L11.1806 17.5907L12.7768 17.5907L12.7768 21.0112C12.5031 21.2392 12.3207 21.5585 12.3207 21.9233C12.3207 22.5618 12.8224 23.0635 13.4609 23.0635C14.0993 23.0635 14.601 22.5618 14.601 21.9233C14.601 21.5585 14.4186 21.2392 14.1449 21.0112L14.1449 17.5907L16.4253 17.5907L16.4253 21.0112C16.1516 21.2392 15.9692 21.5585 15.9692 21.9233C15.9692 22.5618 16.4709 23.0635 17.1094 23.0635C17.7479 23.0635 18.2495 22.5618 18.2495 21.9233C18.2495 21.5585 18.0671 21.2392 17.7935 21.0112L17.7935 17.5907L19.1616 17.5907C19.2985 17.5907 19.4809 17.5907 19.6177 17.5451L19.6177 19.6886C19.6177 20.0991 19.8001 20.5095 20.0738 20.8288L20.9859 21.7409L20.9859 21.8777C20.9859 22.5162 21.4876 23.0179 22.1261 23.0179C22.7645 23.0179 23.2662 22.5162 23.2662 21.8777C23.2662 21.2848 22.7645 20.7832 22.1261 20.7832ZM11.1806 15.0824C10.8157 15.0824 10.4965 14.7632 10.4965 14.3983C10.4965 14.0334 10.8157 13.7142 11.1806 13.7142C11.5454 13.7142 11.8646 14.0334 11.8646 14.3983C11.8646 14.7632 11.5454 15.0824 11.1806 15.0824ZM18.9336 15.0824L13.9169 15.0824C13.5521 15.0824 13.2328 14.7632 13.2328 14.3983C13.2328 14.0334 13.5521 13.7142 13.9169 13.7142L18.9336 13.7142C19.2985 13.7142 19.6177 14.0334 19.6177 14.3983C19.6177 14.7632 19.2985 15.0824 18.9336 15.0824Z" fill="white"/>
<defs>
<linearGradient id="paint0_linear_11276_1964" x1="29.9997" y1="15.0001" x2="0" y2="15.0001" gradientUnits="userSpaceOnUse">
<stop stop-color="#5B70E9"/>
<stop offset="1" stop-color="#7EA2F5"/>
</linearGradient>
</defs>
</svg>
