<svg width="12" height="12" fill="none" xmlns="http://www.w3.org/2000/svg"><g fill="#272727" fill-opacity=".8"><path d="M6 12c-3.309 0-6-2.691-6-6s2.691-6 6-6 6 2.691 6 6-2.691 6-6 6ZM6 .857A5.149 5.149 0 0 0 .857 6 5.149 5.149 0 0 0 6 11.143 5.149 5.149 0 0 0 11.143 6 5.149 5.149 0 0 0 6 .857Z"/><path d="M8.445 6.135a.438.438 0 0 0-.616 0l-1.4 1.391V3.419a.429.429 0 1 0-.858 0v4.13l-1.409-1.43a.428.428 0 0 0-.607-.003.431.431 0 0 0-.002.61l2.134 2.156a.431.431 0 0 0 .61.004v-.002h.001l2.146-2.14a.431.431 0 0 0 0-.609Z"/></g></svg>