<svg width="39" height="28" fill="none" xmlns="http://www.w3.org/2000/svg"><path d="M.842 25.54a1.44 1.44 0 1 0 2.396 1.598L.842 25.541Zm9.838-12.16.74-1.235-1.177-.707-.761 1.143 1.198.798Zm12 7.2-.74 1.234 1.243.747.737-1.25-1.24-.732ZM35.114 1.5A1.44 1.44 0 0 0 33.36.465L20.811 3.703a1.44 1.44 0 0 0 .72 2.79l11.154-2.88 2.88 11.155a1.44 1.44 0 0 0 2.788-.72L35.114 1.5ZM3.238 27.138l8.64-12.96-2.396-1.597-8.64 12.96 2.396 1.597ZM9.94 14.614l12 7.2 1.482-2.47-12-7.2-1.482 2.47Zm13.981 6.697L34.96 2.59l-2.48-1.463-11.04 18.72 2.48 1.463Z" fill="#fff"/></svg>